<svg width="2200" height="560" viewBox="0 0 2200 560" fill="none" xmlns="http://www.w3.org/2000/svg">
<rect width="2200" height="560" fill="#EEEEEE"/>
<path d="M681.752 208C732.425 208 773.504 249.414 773.504 300.5C773.504 338.116 751.231 370.486 719.257 384.942L774 434H687.208L645.617 385.548C645.262 385.394 644.908 385.239 644.556 385.081V434H590V301H590.003C590.002 300.833 590 300.667 590 300.5C590 249.414 631.079 208 681.752 208Z" fill="#C10007"/>
<circle cx="682" cy="301" r="46" fill="white"/>
<path d="M682 278C690.837 278 698 285.316 698 294.341C698 299.876 695.304 304.766 691.182 307.722L698 326H666L672.817 307.722C668.695 304.766 666 299.875 666 294.341C666 285.316 673.163 278 682 278Z" fill="black"/>
<path d="M894.741 133.969C925.252 123.717 958.201 123.348 988.933 132.912C1019.66 142.476 1046.62 161.491 1066 187.268L997.888 238.814C985.311 222.503 965.614 212 943.471 212C905.494 212 874.708 242.892 874.708 281C874.708 319.108 905.494 350 943.471 350C966.186 350 986.327 338.947 998.848 321.909L1066 372.73C1046.63 398.508 1019.67 417.522 988.937 427.087C958.206 436.652 925.256 436.283 894.745 426.032C864.234 415.781 837.705 396.168 818.909 369.963C800.113 343.758 790 312.288 790 280.002C790 247.715 800.112 216.245 818.907 190.04C837.703 163.835 864.231 144.22 894.741 133.969Z" fill="#292524"/>
<path d="M1610 126V208H1462V253H1560V335H1462V434H1380V126H1610Z" fill="#292524"/>
<path d="M1357 208H1259V434H1177V208H1079V126H1357V208Z" fill="#292524"/>
</svg>
