<svg xmlns="http://www.w3.org/2000/svg" width="256" height="256" viewBox="0 0 256 256" fill="none"><path d="M127.719 0C185.119 0.000149648 231.65 46.9109 231.65 104.778C231.65 147.387 206.422 184.055 170.203 200.43L232.213 256H133.899L86.7886 201.117C86.3858 200.943 85.9846 200.766 85.5845 200.587V256H23.7876V105.345H23.7915C23.7905 105.156 23.7876 104.967 23.7876 104.778C23.7878 46.9108 70.3197 0 127.719 0Z" fill="#CA3C41"/><path d="M128 157.451C156.777 157.451 180.106 134.122 180.106 105.345C180.106 76.5676 156.777 53.2389 128 53.2389C99.2225 53.2389 75.8938 76.5676 75.8938 105.345C75.8938 134.122 99.2225 157.451 128 157.451Z" fill="white"/><path d="M128 79.2919C138.01 79.292 146.124 87.5792 146.124 97.8017C146.124 104.071 143.07 109.612 138.401 112.96L146.124 133.664H109.876L117.599 112.96C112.929 109.612 109.876 104.071 109.876 97.8017C109.876 87.5792 117.991 79.2919 128 79.2919Z" fill="black"/></svg>
